<svg class="svg-icon" style="width: 1em; height: 1em;vertical-align: middle;fill: currentColor;overflow: hidden;" viewBox="0 0 1024 1024" version="1.1" xmlns="http://www.w3.org/2000/svg"><path d="M686.21 327.5A182.32 182.32 0 0 0 512.34 455a182.29 182.29 0 0 0-173.87-127.51c-100.64 0-182.24 81.6-182.24 182.24a182.25 182.25 0 0 0 356.1 54.71A182.3 182.3 0 0 0 686.21 692c100.63 0 182.23-81.59 182.23-182.23S786.84 327.5 686.21 327.5z m0 320.59a138.36 138.36 0 1 1 138.35-138.36 138.35 138.35 0 0 1-138.35 138.36z m-347.74 0a138.36 138.36 0 1 1 138.35-138.36 138.35 138.35 0 0 1-138.35 138.36z" fill="#9CDCF8" /><path d="M646.95 257.96a41.38 41.39 0 1 0 82.76 0 41.38 41.39 0 1 0-82.76 0Z" fill="#9CDCF8" /><path d="M296.98 765.06a41.38 41.39 0 1 0 82.76 0 41.38 41.39 0 1 0-82.76 0Z" fill="#9CDCF8" /></svg>