<svg class="svg-icon" style="width: 1em;height: 1em;vertical-align: middle;fill: currentColor;overflow: hidden;" viewBox="0 0 1024 1024" version="1.1" xmlns="http://www.w3.org/2000/svg"><path d="M298.666667 505.898667c-47.061333 0-85.333333 39.637333-85.333334 88.384C213.333333 643.008 251.605333 682.666667 298.666667 682.666667h400c61.76 0 112-51.968 112-115.818667 0-72.213333-63.808-130.069333-136.96-112.789333a21.44 21.44 0 0 1-24.426667-12.202667C622.528 380.778667 563.413333 341.333333 498.666667 341.333333c-82.112 0-152.426667 63.317333-163.584 147.285334a21.269333 21.269333 0 0 1-24.256 18.304 84.736 84.736 0 0 0-12.16-1.024M698.666667 725.333333H298.666667c-70.592 0-128-58.794667-128-131.050666 0-71.466667 56.170667-129.749333 125.696-131.029334C318.101333 368.128 401.834667 298.666667 498.666667 298.666667c76.117333 0 145.962667 42.965333 182.272 110.805333 92.885333-11.413333 172.394667 64 172.394666 157.376C853.333333 654.229333 783.957333 725.333333 698.666667 725.333333" fill="#333333" /><path d="M394.666667 469.333333a10.666667 10.666667 0 0 1-10.666667-10.666666c0-41.173333 33.493333-74.666667 74.666667-74.666667a10.666667 10.666667 0 0 1 0 21.333333 53.397333 53.397333 0 0 0-53.333334 53.333334 10.666667 10.666667 0 0 1-10.666666 10.666666" fill="#333333" /></svg>