<svg class="svg-icon" style="width: 1em;height: 1em;vertical-align: middle;fill: currentColor;overflow: hidden;" viewBox="0 0 1024 1024" version="1.1" xmlns="http://www.w3.org/2000/svg"><path d="M698.666667 597.333333a21.333333 21.333333 0 1 1 0-42.666666c61.76 0 112-51.968 112-115.818667 0-72.213333-64.213333-130.048-136.938667-112.789333a21.376 21.376 0 0 1-24.448-12.202667C622.528 252.8 563.392 213.333333 498.666667 213.333333c-82.112 0-152.448 63.338667-163.584 147.306667a21.290667 21.290667 0 0 1-24.32 18.304 78.208 78.208 0 0 0-12.096-1.045333c-47.061333 0-85.333333 39.637333-85.333334 88.384C213.333333 515.029333 251.605333 554.666667 298.666667 554.666667a21.333333 21.333333 0 1 1 0 42.666666c-70.592 0-128-58.794667-128-131.050666 0-71.466667 56.170667-129.770667 125.696-131.029334C318.101333 240.149333 401.856 170.666667 498.666667 170.666667c76.096 0 145.962667 42.986667 182.272 110.805333C773.717333 270.122667 853.333333 345.450667 853.333333 438.848 853.333333 526.250667 783.957333 597.333333 698.666667 597.333333" fill="#333333" /><path d="M618.666667 469.333333H298.666667a21.333333 21.333333 0 1 1 0-42.666666h320a21.333333 21.333333 0 1 1 0 42.666666M576 533.333333H320a21.333333 21.333333 0 1 1 0-42.666666h256a21.333333 21.333333 0 1 1 0 42.666666M618.666667 597.333333H384a21.333333 21.333333 0 1 1 0-42.666666h234.666667a21.333333 21.333333 0 1 1 0 42.666666M640 661.333333h-192a21.333333 21.333333 0 1 1 0-42.666666h192a21.333333 21.333333 0 1 1 0 42.666666M661.333333 725.333333h-170.666666a21.333333 21.333333 0 1 1 0-42.666666h170.666666a21.333333 21.333333 0 1 1 0 42.666666M640 789.333333h-128a21.333333 21.333333 0 1 1 0-42.666666h128a21.333333 21.333333 0 1 1 0 42.666666M597.333333 853.333333h-85.333333a21.333333 21.333333 0 1 1 0-42.666666h85.333333a21.333333 21.333333 0 1 1 0 42.666666" fill="#333333" /></svg>