<svg class="svg-icon" style="width: 1em;height: 1em;vertical-align: middle;fill: currentColor;overflow: hidden;" viewBox="0 0 1024 1024" version="1.1" xmlns="http://www.w3.org/2000/svg"><path d="M699.114667 640a21.333333 21.333333 0 1 1 0-42.666667c35.370667 0 71.082667-22.101333 71.082666-71.509333 0-49.386667-35.733333-71.488-71.146666-71.488-3.328 0-6.634667 0.384-9.834667 0.917333a21.354667 21.354667 0 0 1-24.64-18.474666C654.976 358.037333 595.2 298.666667 525.504 298.666667c-54.848 0-105.066667 36.821333-127.936 93.781333a21.376 21.376 0 0 1-25.088 12.714667 86.826667 86.826667 0 0 0-21.141333-2.709334c-55.253333 0-95.338667 40.981333-95.338667 97.450667C256 557.269333 293.824 597.333333 348.010667 597.333333a21.333333 21.333333 0 1 1 0 42.666667C269.952 640 213.333333 581.077333 213.333333 499.904c0-79.893333 59.328-140.117333 138.005334-140.117333 4.544 0 9.173333 0.256 13.824 0.768C397.226667 296.512 458.538667 256 525.504 256c85.098667 0 158.656 65.685333 178.090667 155.754667 63.573333 2.154667 109.269333 49.472 109.269333 114.069333 0 66.154667-47.850667 114.176-113.749333 114.176" fill="#333333" /><path d="M535.573333 768a21.226667 21.226667 0 0 1-16.213333-7.466667l-128-149.333333a21.312 21.312 0 1 1 32.384-27.733333l128 149.333333a21.312 21.312 0 0 1-16.170667 35.2M620.906667 768a21.226667 21.226667 0 0 1-16.213334-7.466667l-128-149.333333a21.312 21.312 0 1 1 32.384-27.733333l128 149.333333a21.312 21.312 0 0 1-16.170666 35.2M706.24 768a21.226667 21.226667 0 0 1-16.213333-7.466667l-128-149.333333a21.312 21.312 0 1 1 32.384-27.733333l128 149.333333a21.312 21.312 0 0 1-16.170667 35.2" fill="#333333" /></svg>