<svg class="svg-icon" style="width: 1em;height: 1em;vertical-align: middle;fill: currentColor;overflow: hidden;" viewBox="0 0 1024 1024" version="1.1" xmlns="http://www.w3.org/2000/svg"><path d="M298.666667 420.565333c-47.061333 0-85.333333 39.637333-85.333334 88.384C213.333333 557.674667 251.605333 597.333333 298.666667 597.333333h400c61.76 0 112-51.968 112-115.818666 0-72.192-63.786667-130.005333-136.96-112.789334a21.333333 21.333333 0 0 1-24.426667-12.202666C622.528 295.445333 563.392 256 498.666667 256c-82.112 0-152.426667 63.317333-163.584 147.285333a21.290667 21.290667 0 0 1-24.277334 18.304 81.493333 81.493333 0 0 0-12.138666-1.024M698.666667 640H298.666667c-70.592 0-128-58.794667-128-131.050667 0-71.466667 56.170667-129.749333 125.696-131.029333C318.08 282.794667 401.856 213.333333 498.666667 213.333333c76.096 0 145.962667 42.965333 182.272 110.805334 93.013333-11.413333 172.394667 64.021333 172.394666 157.376C853.333333 568.896 783.957333 640 698.666667 640M682.666667 810.666667a10.666667 10.666667 0 0 1-10.666667-10.666667v-106.666667a10.666667 10.666667 0 0 1 21.333333 0v106.666667a10.666667 10.666667 0 0 1-10.666666 10.666667" fill="#333333" /><path d="M736 757.333333h-106.666667a10.666667 10.666667 0 0 1 0-21.333333h106.666667a10.666667 10.666667 0 0 1 0 21.333333" fill="#333333" /><path d="M644.949333 795.029333a10.709333 10.709333 0 0 1-7.552-18.218666l75.434667-75.413334a10.666667 10.666667 0 0 1 15.082667 15.082667l-75.413334 75.434667a10.709333 10.709333 0 0 1-7.552 3.114666" fill="#333333" /><path d="M720.384 795.029333a10.709333 10.709333 0 0 1-7.552-3.114666l-75.413333-75.434667a10.666667 10.666667 0 0 1 15.082666-15.082667l75.434667 75.413334a10.709333 10.709333 0 0 1-7.552 18.218666M512 810.666667a10.666667 10.666667 0 0 1-10.666667-10.666667v-106.666667a10.666667 10.666667 0 0 1 21.333334 0v106.666667a10.666667 10.666667 0 0 1-10.666667 10.666667" fill="#333333" /><path d="M565.333333 757.333333h-106.666666a10.666667 10.666667 0 0 1 0-21.333333h106.666666a10.666667 10.666667 0 0 1 0 21.333333" fill="#333333" /><path d="M474.282667 795.029333a10.709333 10.709333 0 0 1-7.552-18.218666l75.434666-75.413334a10.666667 10.666667 0 0 1 15.082667 15.082667l-75.413333 75.434667a10.709333 10.709333 0 0 1-7.552 3.114666" fill="#333333" /><path d="M549.717333 795.029333a10.709333 10.709333 0 0 1-7.552-3.114666l-75.413333-75.434667a10.666667 10.666667 0 0 1 15.082667-15.082667l75.434666 75.413334a10.709333 10.709333 0 0 1-7.552 18.218666M341.333333 810.666667a10.666667 10.666667 0 0 1-10.666666-10.666667v-106.666667a10.666667 10.666667 0 0 1 21.333333 0v106.666667a10.666667 10.666667 0 0 1-10.666667 10.666667" fill="#333333" /><path d="M394.666667 757.333333h-106.666667a10.666667 10.666667 0 0 1 0-21.333333h106.666667a10.666667 10.666667 0 0 1 0 21.333333" fill="#333333" /><path d="M303.616 795.029333a10.709333 10.709333 0 0 1-7.552-18.218666l75.434667-75.413334a10.666667 10.666667 0 0 1 15.082666 15.082667l-75.413333 75.434667a10.709333 10.709333 0 0 1-7.552 3.114666" fill="#333333" /><path d="M379.050667 795.029333a10.709333 10.709333 0 0 1-7.552-3.114666l-75.413334-75.434667a10.666667 10.666667 0 0 1 15.082667-15.082667l75.434667 75.413334a10.709333 10.709333 0 0 1-7.552 18.218666" fill="#333333" /></svg>