<svg class="svg-icon" style="width: 1em;height: 1em;vertical-align: middle;fill: currentColor;overflow: hidden;" viewBox="0 0 1024 1024" version="1.1" xmlns="http://www.w3.org/2000/svg"><path d="M832 533.333333h-85.333333a21.333333 21.333333 0 0 1 0-42.666666h85.333333a21.333333 21.333333 0 0 1 0 42.666666M512 362.666667c-82.346667 0-149.333333 66.986667-149.333333 149.333333s66.986667 149.333333 149.333333 149.333333 149.333333-66.986667 149.333333-149.333333-66.986667-149.333333-149.333333-149.333333m0 341.333333c-105.856 0-192-86.144-192-192s86.144-192 192-192 192 86.144 192 192-86.144 192-192 192M512 298.666667a21.333333 21.333333 0 0 1-21.333333-21.333334V192a21.333333 21.333333 0 0 1 42.666666 0v85.333333a21.333333 21.333333 0 0 1-21.333333 21.333334M512 853.333333a21.333333 21.333333 0 0 1-21.333333-21.333333v-85.333333a21.333333 21.333333 0 0 1 42.666666 0v85.333333a21.333333 21.333333 0 0 1-21.333333 21.333333M277.333333 533.333333H192a21.333333 21.333333 0 0 1 0-42.666666h85.333333a21.333333 21.333333 0 0 1 0 42.666666M346.069333 367.402667a21.269333 21.269333 0 0 1-15.082666-6.250667L270.656 300.8a21.312 21.312 0 1 1 30.165333-30.165333l60.330667 60.330666a21.312 21.312 0 0 1-15.082667 36.416M738.261333 759.594667a21.269333 21.269333 0 0 1-15.082666-6.250667l-60.330667-60.330667a21.312 21.312 0 1 1 30.165333-30.165333l60.330667 60.330667a21.312 21.312 0 0 1-15.082667 36.416M677.930667 367.402667a21.312 21.312 0 0 1-15.082667-36.416l60.330667-60.330667a21.312 21.312 0 1 1 30.165333 30.165333l-60.330667 60.330667a21.269333 21.269333 0 0 1-15.082666 6.250667M285.738667 759.594667a21.312 21.312 0 0 1-15.082667-36.416l60.330667-60.330667a21.312 21.312 0 1 1 30.165333 30.165333L300.8 753.344a21.269333 21.269333 0 0 1-15.082667 6.250667" fill="#333333" /><path d="M416 490.666667a10.666667 10.666667 0 0 1-10.666667-10.666667c0-41.173333 33.493333-74.666667 74.666667-74.666667a10.666667 10.666667 0 0 1 0 21.333334 53.397333 53.397333 0 0 0-53.333333 53.333333 10.666667 10.666667 0 0 1-10.666667 10.666667" fill="#333333" /></svg>