<svg class="svg-icon" style="width: 1em;height: 1em;vertical-align: middle;fill: currentColor;overflow: hidden;" viewBox="0 0 1024 1024" version="1.1" xmlns="http://www.w3.org/2000/svg"><path d="M485.397333 445.013333c-32.362667 0-58.666667 24.576-58.666666 54.826667s26.304 54.869333 58.666666 54.869333h240c23.530667 0 42.666667-17.770667 42.666667-39.616s-19.136-39.616-42.666667-39.616c-2.133333 0-4.181333 0.213333-6.186666 0.490667a21.376 21.376 0 0 1-24.085334-18.090667c-6.058667-42.112-44.629333-73.813333-89.728-73.813333-35.733333 0-68.224 19.882667-82.794666 50.709333a21.269333 21.269333 0 0 1-23.808 11.733334 62.528 62.528 0 0 0-13.397334-1.493334m240 152.362667h-240c-55.893333 0-101.333333-43.733333-101.333333-97.536 0-55.786667 49.066667-100.949333 107.712-97.28 24-37.632 67.029333-61.184 113.621333-61.184 59.477333 0 111.317333 38.314667 127.786667 91.754667 43.413333 3.84 77.568 39.104 77.568 81.962666 0 45.376-38.272 82.282667-85.333333 82.282667M362.730667 426.709333h-70.208c-45.141333 0-79.189333-34.432-79.189334-80.106666 0-42.432 29.354667-75.157333 69.653334-79.573334C297.813333 210.944 345.493333 170.666667 400.362667 170.666667c42.688 0 81.962667 24.490667 103.936 63.658666l2.794666-0.042666c37.696 0 70.122667 24.128 84.608 62.997333a21.312 21.312 0 1 1-39.978666 14.912c-8.213333-22.058667-24.917333-35.242667-44.629334-35.242667-3.072 0-5.546667 0.490667-9.898666 1.578667a21.333333 21.333333 0 0 1-24.96-12.629333C459.029333 233.472 431.466667 213.333333 400.362667 213.333333c-39.36 0-73.173333 33.450667-78.677334 77.824a21.269333 21.269333 0 0 1-24.490666 18.453334 32.384 32.384 0 0 0-4.8-0.426667c-21.44 0-36.394667 15.381333-36.394667 37.418667s15.018667 37.44 36.522667 37.44h70.208a21.333333 21.333333 0 0 1 0 42.666666M554.282667 618.709333h-84.458667a21.333333 21.333333 0 0 0-18.474667 10.666667l-42.730666 73.92a24.661333 24.661333 0 0 0 0.832 25.770667c4.416 6.592 11.882667 10.538667 19.968 10.538666h6.058666l-28.544 83.221334c-3.626667 10.496 0.064 17.941333 2.56 21.461333 4.010667 5.610667 10.773333 9.088 17.664 9.088 4.352 0 10.794667-1.301333 16.810667-7.466667l124.970667-128.554666c6.933333-7.104 8.96-16.874667 5.333333-25.514667a22.677333 22.677333 0 0 0-18.56-13.696l16.682667-26.858667a21.354667 21.354667 0 0 0-18.133334-32.576m0 21.333334l-36.778666 59.264h35.2c2.24 0 2.666667 1.429333 0.981333 3.178666l-125.013333 128.554667c-0.64 0.682667-1.173333 1.002667-1.493334 1.002667-0.490667 0-0.554667-0.810667-0.064-2.304l38.250667-111.466667H429.44c-2.24 0-3.306667-1.941333-2.346667-4.288l42.730667-73.941333h84.458667M767.594667 618.709333h-84.437334a21.333333 21.333333 0 0 0-18.474666 10.666667l-42.730667 73.92a24.661333 24.661333 0 0 0 0.832 25.770667c4.416 6.592 11.882667 10.538667 19.968 10.538666h6.058667l-28.544 83.221334c-3.626667 10.496 0.064 17.941333 2.56 21.461333 4.010667 5.610667 10.773333 9.088 17.664 9.088 4.352 0 10.794667-1.301333 16.810666-7.466667l124.970667-128.554666c6.954667-7.104 8.96-16.874667 5.333333-25.514667a22.677333 22.677333 0 0 0-18.56-13.696l16.682667-26.858667a21.354667 21.354667 0 0 0-18.133333-32.576m0 21.333334l-36.778667 59.264h35.2c2.24 0 2.688 1.429333 1.002667 3.178666l-125.013334 128.554667c-0.682667 0.682667-1.194667 1.002667-1.493333 1.002667-0.512 0-0.576-0.810667-0.085333-2.304l38.250666-111.466667H642.773333c-2.24 0-3.306667-1.941333-2.346666-4.288l42.730666-73.941333h84.437334" fill="#333333" /></svg>